<?xml version="1.0"?>
    
<!--********* Copyright (c) 2024 Pareto Softare, LLC DBA Simplemaps.com ***************************************
************* Free for Commercial Use, full terms at  https://simplemaps.com/resources/svg-license ************
************* Attribution is appreciated! https://simplemaps.com *******************************************-->

<svg fill="#a1834c" height="1000" stroke="#ffffff" stroke-linecap="round" stroke-linejoin="round" stroke-width=".5" version="1.2" viewbox="0 0 1000 1000" width="1000" xmlns="http://www.w3.org/2000/svg">
 <g id="features">
  <path d="M210.3 263.7l-0.7-1.3-0.9-1-0.5-0.7-0.8-2.4 1.8-0.4 0.8-0.6-0.2-0.9-1.1-1.2 0-1.3 1.3 0-0.3-1-0.3-0.2-0.3 0.1-0.4-0.4 2.5-1.7-1.2-1.5 1.3-0.5 1.2-0.8 0-1.7-0.9-0.1-0.5-0.3-0.4-0.4-0.7-0.5 0.4-1.5 0.7-1.5 1.1-1.2 1.7-0.5 0-1.4-1.8-1.8-0.4-0.9-1.3-2-0.8 0-0.9 0.1 0-1.5 2.5 0-0.5-1.4-0.7-4.6 1.2 1.5 0.8-2.4 0.5-0.8 0.2 0.9 0.1 0.5 0.3-0.2 0.8-1.2-1.1-2.7-0.6-5.7-1-1.9 0-1.7 1.3 0 0-1.4-1.6-0.9-0.7-1.6 0-1.8 0.5-0.7 1.3-0.6 1.6-1.5 2.8-3.7 3.4-2.5 0.1 0 4.4 0.6 0.7-0.4 2.2-1.2 6.2-5.5 10.2-6.5 3.2-0.8 1.2-0.6 1.1-0.2 1 0.1 0.7 0.6 0 0.1 1.7 2.2 20 4.6 1.8 1.1 3.2 3.2 0.9 0.3 2.4 0 0.7 0.4 0.3 1.5-0.3 1.4-0.6 0.9-0.6-0.1 1.6 2.1 1.7 1.6 1.9 0.6 2.7-0.5 4.3 0.4 0.9 2.5-0.6 3.7 0.2 4.2 1.7 3.7 8.4 12.7 1 2.6 0.1 0.9 0.6 0.2 2.3 0.1 2.6 0.1 6.9-1 1.2 0.1 1.9 0.8 1.1 0.2 0.9-0.4 2.1-2 1-0.3 2 1.1 6.1 6.1 11.9 8.3 16.4 15.5 2.7 1.6 3.7 1.1 10.4 1.1 3 1.9 6.8 0.8 25.4 3.1 6.7 5.1 3.3-1.9 4 0.1 11.9 3.2 2.6 0.1 2.3-0.8 29.9-20.5 28.4-18.6 0.1-0.1 20.5-13.1 31.8-20.5 14.7-9.4 17.1-11 31.9-20.5 31.8-20.5 23.6-15.3 32.4-20.4 15.7-9.9 39.8-25.1 45.5-28.3 8.6 31.7 7.7 28.4 6.4 23.6 8.5 31.4 8.8 32.4 12.4 46.1-14.3 4.5-0.2 0.1-0.1 0.2 0.1 0.2 0.2 0.4 9.1 31.6 1.4 3.3 1.8 1.1 35.2-9.8 3.8 2.3 2.8 6.7 3.9 14.8-4.8 7-22.3 19.1 0 1.7-1.9 0.6-3.6 2.7-22 21-6.5 2.8-21.1 6.1-41.7 12.2-41.8 12.1-41.7 12.1-35.1 10.2-6.7 1.9-35.1 10.6-10.9 3.3-46 13.8-46 13.8-38.9 11.7-7.1 2.1 24.1 26.3 24.2 26.3 0.4 0.4 23.8 25.9 24.1 26.2 0.6 0.7 0.6 0.7 0.6 0.7 0.6 0.7 20.3 24.1 20.4 24 20.4 24 20.4 24 9.2 10.8 0 0.2 0 0.1-0.2 0-1.2 0.8-13.6 7.6-22.5 12.7-20.2 11.4-4.3 3.6-2.4 3.8-5.4 13.4-6.7 16.3-6.1 14.9-8.3 20.2-4 3.6-21.9 4.5-24.8 5.2-26.5 5.6-26.8 5.6-16.5 3.4-16.1 3.3-5.1 2.6-4.4 4.8-10.3 17.5-8.5 14.5-11.6 19.7-11.9 20.2-14.4 11.9-21.5 17.9-19.7 16.3-20.1 16.7-4.8 1.9-5.1 0.2-19.3-3.3-21.4-3.7-10.6-1.8-21.9-3.9-27.6-4.7-25.8-4.5-28.9-5-22.1-3.9-20.6-3.6 2.5-1.7 1.2-19.4 1.3-5.6 4-8.7-0.1-3.4-3.9-3.9-2.5 0-0.2-0.7 0-0.6-0.2-0.3-0.9 0.1 0.8-5.8 1.3-4.7 2.5-4 1.8-5.4 0.9-12 1.4-5.3 8.6-23.4 0.8-4.3 0.2-13.1 1.4-7.2 0.7-1.9 0.9-1.6 0.7-1.9 0.1-2.6 2.2-8.5 7.9-11.9 3-7.2 0-6.8-3.8-13.2 0.1-6.1 1.3-3.7 1.8-11.2 1.1-2.7 1.2-2.2 1-2.3 0.5-3-0.6-3.1-2.6-4.3-1-2.3 0-5.1 3.3-8.8 0.9-5.1 8-26.4 10.8-22.2 1.5-5.2 0.8-5.4 0.7-2.5 1.2-2.6 1.4-1.7 3.2-2.8 1-2.1 0.7-4.8-0.1-4.8 0.5-4.9 2.3-4.9 2.3-2.2 5-4.8 2.1-4 0-6.8 1.2-6.3 8.7-17.3 0.9-6.2-1.3-5.9-2.8-5.4-2-4.4-1.8-5.6-1-5.9 2.4-5.3 2.6-4.6 0.3-4.7-1.4-1.5 3.4-6.3 3.3-8.8 0.8-4.9 0-2.2 0.3-12.6-0.1-0.1 0.1 0.1 0.1-0.1 0-0.2-0.1-0.3 1.1-16.2 2.9-15.8 4.2-9.7 4.6-10.8 5.9-6.6-3.9-11.8 0-1.6 2-2.8-4.5-17.5 0.5-1.7 1.2-0.7 1.2-0.4 0.9-1 0.1-1.7-1.1-2.4-0.3-1.9-0.1-2.9-0.4-2.4-2-5.1-0.4-10.1 1.1-3.8 3.1-2.6-2-2.7 0.1-2.5 3.2-5.4-1-1.4 0-1.2 0.8-1 1.5-0.7 0-1.7-0.8-2.6 0.9-3.5 2.4-10.3-2.5 0 0.3-1.3 0.5-0.8 0.8-0.6 0.9-0.5-1.5-2.6-0.7-4.1 0.1-4.2 0.8-2.6-1.7-3.3 0.2-6.5-1-2.2 0-1.5 1.3 0 0 1.5 1.2 0-0.3-2-0.6-1.7z" id="JO" name="Jordan">
  </path>
 </g>
 <g id="points">
  <circle class="29.399037437882072|35.16651581589536" cx="137.1" cy="910" id="0">
  </circle>
  <circle class="31.071731183332716|37.33782282591918" cx="540.3" cy="550.4" id="1">
  </circle>
  <circle class="33.162598365146025|39.07486843393824" cx="862.9" cy="91.9" id="2">
  </circle>
 </g>
 <g id="label_points">
  <circle class="Jordan" cx="361.7" cy="608.2" id="JO">
  </circle>
 </g>
</svg>